<svg width="130" height="32" viewBox="0 0 130 32" fill="none" xmlns="http://www.w3.org/2000/svg">
<path d="M0 6.40303V2.8562H1.26699V6.40303H0ZM0 27.443V9.74325H1.26699V27.443H0Z" fill="white"/>
<path d="M4.30006 9.74325H5.56705V13.5311H5.63373C5.85601 12.8654 6.1672 12.28 6.5673 11.7749C6.98963 11.2469 7.46753 10.7993 8.001 10.432C8.5567 10.0646 9.15685 9.78917 9.80146 9.60551C10.4461 9.42186 11.1018 9.33003 11.7686 9.33003C12.7689 9.33003 13.6135 9.45629 14.3026 9.70882C15.0139 9.96134 15.5918 10.2942 16.0364 10.7074C16.4809 11.1207 16.8255 11.5913 17.07 12.1193C17.3367 12.6243 17.5257 13.1409 17.6368 13.6689C17.7479 14.1969 17.8146 14.7134 17.8368 15.2185C17.8591 15.7006 17.8702 16.1253 17.8702 16.4926V27.443H16.6032V16.2515C16.6032 15.8153 16.5699 15.2644 16.5032 14.5986C16.4365 13.9329 16.2364 13.3016 15.903 12.7047C15.5918 12.0849 15.1028 11.5568 14.436 11.1207C13.7914 10.6845 12.8911 10.4664 11.7353 10.4664C10.7573 10.4664 9.89037 10.65 9.13462 11.0174C8.37888 11.3847 7.73427 11.9012 7.2008 12.5669C6.66733 13.2097 6.25611 13.9903 5.96715 14.9085C5.70041 15.8039 5.56705 16.791 5.56705 17.87V27.443H4.30006V9.74325Z" fill="white"/>
<path d="M26.891 10.8796H23.1567V23.2419C23.1567 23.9535 23.2345 24.516 23.3901 24.9292C23.5457 25.3424 23.7791 25.6638 24.0903 25.8934C24.4237 26.1 24.8127 26.2263 25.2572 26.2722C25.724 26.3181 26.2575 26.3296 26.8576 26.3066V27.443C26.213 27.4889 25.5795 27.4889 24.9572 27.443C24.357 27.3741 23.8235 27.2019 23.3567 26.9264C22.89 26.628 22.5121 26.1918 22.2231 25.6179C21.9564 25.044 21.8452 24.252 21.8897 23.2419V10.8796H18.7222V9.74325H21.8897V4.23361H23.1567V9.74325H26.891V10.8796Z" fill="white"/>
<path d="M28.2619 18.7653V18.9719C28.2619 20.005 28.3953 20.9921 28.662 21.9333C28.9287 22.8746 29.3177 23.701 29.829 24.4127C30.3624 25.1243 31.0182 25.6868 31.7961 26.1C32.5963 26.5132 33.5188 26.7198 34.5635 26.7198C36.2751 26.7198 37.631 26.2607 38.6312 25.3424C39.6315 24.4012 40.3205 23.1041 40.6984 21.4512H41.9654C41.5875 23.5174 40.7651 25.1014 39.4981 26.2033C38.2533 27.3052 36.5974 27.8562 34.5302 27.8562C33.2632 27.8562 32.1518 27.6266 31.196 27.1675C30.2624 26.6854 29.4733 26.0426 28.8287 25.2391C28.2063 24.4127 27.7395 23.4485 27.4284 22.3466C27.1172 21.2217 26.9616 20.0164 26.9616 18.7309C26.9616 17.4912 27.1172 16.3089 27.4284 15.184C27.7618 14.0362 28.2508 13.0376 28.8954 12.1882C29.54 11.3158 30.3402 10.6271 31.296 10.122C32.274 9.59403 33.4188 9.33003 34.7302 9.33003C35.9305 9.33003 36.9864 9.5596 37.8977 10.0187C38.8313 10.4779 39.6092 11.1092 40.2316 11.9127C40.854 12.6932 41.3208 13.6115 41.632 14.6675C41.9654 15.7006 42.1321 16.814 42.1321 18.0077C42.1321 18.1225 42.121 18.2602 42.0988 18.4209C42.0988 18.5587 42.0988 18.6735 42.0988 18.7653H28.2619ZM40.8318 17.6289C40.7873 16.6647 40.6317 15.7579 40.365 14.9085C40.0983 14.0362 39.6982 13.2786 39.1647 12.6358C38.6534 11.9701 38.02 11.4421 37.2642 11.0518C36.5307 10.6615 35.686 10.4664 34.7302 10.4664C33.7077 10.4664 32.8075 10.673 32.0295 11.0862C31.2516 11.4765 30.5958 12.0045 30.0624 12.6703C29.5289 13.313 29.1177 14.0706 28.8287 14.943C28.5398 15.8153 28.3619 16.7107 28.2952 17.6289H40.8318Z" fill="white"/>
<path d="M45.6182 2.8562V27.443H44.3512V2.8562H45.6182Z" fill="white"/>
<path d="M50.2183 2.8562V27.443H48.9513V2.8562H50.2183Z" fill="white"/>
<path d="M53.5514 6.40303V2.8562H54.8184V6.40303H53.5514ZM53.5514 27.443V9.74325H54.8184V27.443H53.5514Z" fill="white"/>
<path d="M59.1185 2.8562V13.5311H59.1852C59.4074 12.8654 59.7186 12.28 60.1187 11.7749C60.5411 11.2469 61.019 10.7993 61.5524 10.432C62.1081 10.0646 62.7083 9.78917 63.3529 9.60551C63.9975 9.42186 64.6532 9.33003 65.3201 9.33003C66.3203 9.33003 67.165 9.45629 67.854 9.70882C68.5653 9.96134 69.1433 10.2942 69.5878 10.7074C70.0324 11.1207 70.3769 11.5913 70.6214 12.1193C70.8881 12.6243 71.0771 13.1409 71.1882 13.6689C71.2994 14.1969 71.366 14.7134 71.3883 15.2185C71.4105 15.7006 71.4216 16.1253 71.4216 16.4926V27.443H70.1546V16.2515C70.1546 15.8153 70.1213 15.2644 70.0546 14.5986C69.9879 13.9329 69.7879 13.3016 69.4544 12.7047C69.1433 12.0849 68.6542 11.5568 67.9874 11.1207C67.3428 10.6845 66.4426 10.4664 65.2867 10.4664C64.3087 10.4664 63.4418 10.65 62.6861 11.0174C61.9303 11.3847 61.2857 11.9012 60.7522 12.5669C60.2188 13.2097 59.8075 13.9903 59.5186 14.9085C59.2518 15.8039 59.1185 16.791 59.1185 17.87V27.443H57.8515V2.8562H59.1185Z" fill="white"/>
<path d="M74.4409 6.40303V2.8562H75.7079V6.40303H74.4409ZM74.4409 27.443V9.74325H75.7079V27.443H74.4409Z" fill="white"/>
<path d="M80.0079 13.6689H80.1079C80.2635 13.095 80.5414 12.5555 80.9415 12.0504C81.3638 11.5454 81.864 11.1092 82.4419 10.7419C83.042 10.3746 83.6977 10.0991 84.409 9.91543C85.1426 9.70882 85.8983 9.61699 86.6763 9.63995V10.9485C86.0095 10.8567 85.2426 10.9255 84.3757 11.1551C83.531 11.3847 82.7197 11.8897 81.9417 12.6703C81.6306 13.0146 81.3527 13.3475 81.1082 13.6689C80.8859 13.9903 80.697 14.3461 80.5414 14.7364C80.3858 15.1266 80.2635 15.5628 80.1746 16.0449C80.0857 16.527 80.0302 17.1009 80.0079 17.7667V27.443H78.7409V9.74325H80.0079V13.6689Z" fill="white"/>
<path d="M87.1298 18.7653V18.9719C87.1298 20.005 87.2632 20.9921 87.5299 21.9333C87.7966 22.8746 88.1856 23.701 88.6969 24.4127C89.2303 25.1243 89.886 25.6868 90.664 26.1C91.4642 26.5132 92.3867 26.7198 93.4314 26.7198C95.1429 26.7198 96.4988 26.2607 97.4991 25.3424C98.4994 24.4012 99.1884 23.1041 99.5663 21.4512H100.833C100.455 23.5174 99.633 25.1014 98.366 26.2033C97.1212 27.3052 95.4652 27.8562 93.3981 27.8562C92.1311 27.8562 91.0197 27.6266 90.0639 27.1675C89.1303 26.6854 88.3412 26.0426 87.6966 25.2391C87.0742 24.4127 86.6074 23.4485 86.2962 22.3466C85.9851 21.2217 85.8295 20.0164 85.8295 18.7309C85.8295 17.4912 85.9851 16.3089 86.2962 15.184C86.6297 14.0362 87.1187 13.0376 87.7633 12.1882C88.4079 11.3158 89.2081 10.6271 90.1639 10.122C91.1419 9.59403 92.2867 9.33003 93.5981 9.33003C94.7984 9.33003 95.8542 9.5596 96.7656 10.0187C97.6992 10.4779 98.4771 11.1092 99.0995 11.9127C99.7219 12.6932 100.189 13.6115 100.5 14.6675C100.833 15.7006 101 16.814 101 18.0077C101 18.1225 100.989 18.2602 100.967 18.4209C100.967 18.5587 100.967 18.6735 100.967 18.7653H87.1298ZM99.6997 17.6289C99.6552 16.6647 99.4996 15.7579 99.2329 14.9085C98.9661 14.0362 98.566 13.2786 98.0326 12.6358C97.5213 11.9701 96.8878 11.4421 96.1321 11.0518C95.3986 10.6615 94.5539 10.4664 93.5981 10.4664C92.5756 10.4664 91.6754 10.673 90.8974 11.0862C90.1194 11.4765 89.4637 12.0045 88.9302 12.6703C88.3968 13.313 87.9856 14.0706 87.6966 14.943C87.4076 15.8153 87.2298 16.7107 87.1631 17.6289H99.6997Z" fill="white"/>
<circle cx="102.5" cy="26.3562" r="1.5" fill="white"/>
<path d="M118.328 24.2271L113.972 12.6456L109.351 24.2271H106.518L112.275 8.35913H115.404L121.139 24.2271H118.328Z" fill="white"/>
<path d="M123.014 8.5188H125.621V24.3867H123.014V8.5188Z" fill="white"/>
<path d="M112.481 20.2867L114.159 16.5593L115.836 20.2867H112.481Z" fill="white"/>
<path fill-rule="evenodd" clip-rule="evenodd" d="M106.281 2.76782H111.736V0.767822H104.281V2.3949V2.76782V9.84959H106.281L106.281 2.76782Z" fill="white"/>
<path fill-rule="evenodd" clip-rule="evenodd" d="M128 2.76782H122.545V0.767822H130V2.3949V2.76782V9.84959H128L128 2.76782Z" fill="white"/>
<path fill-rule="evenodd" clip-rule="evenodd" d="M128 29.2322H122.545V31.2322H130V29.6051V29.2322V22.1504H128L128 29.2322Z" fill="white"/>
</svg>
